<mxfile host="app.diagrams.net" modified="2024-05-07T14:22:56.223Z" agent="Mozilla/5.0 (Windows NT 10.0; Win64; x64) AppleWebKit/537.36 (KHTML, like Gecko) Chrome/121.0.0.0 Safari/537.36 Edg/121.0.0.0" version="24.3.1" etag="YVpbHiID3JFLykgIFgoz" type="github">
  <diagram name="Seite-1" id="WSpkLGd0CBDymzZj6MPS">
    <mxGraphModel>
      <root>
        <mxCell id="0" />
        <mxCell id="1" parent="0" />
      </root>
    </mxGraphModel>
  </diagram>
</mxfile>
